<svg xmlns="http://www.w3.org/2000/svg" xmlns:xlink="http://www.w3.org/1999/xlink" width="180" zoomAndPan="magnify" viewBox="0 0 135 37.5" height="50" preserveAspectRatio="xMidYMid meet" version="1.0"><defs><g/><clipPath id="0ce24fa015"><path d="M 2.253906 4.71875 L 29.414062 4.71875 L 29.414062 32.933594 L 2.253906 32.933594 Z M 2.253906 4.71875 " clip-rule="nonzero"/></clipPath><clipPath id="cabc1a1e07"><path d="M 17.855469 17.863281 L 5.734375 17.863281 C 5.265625 17.863281 4.921875 17.421875 5.050781 16.972656 L 8.378906 5.230469 C 8.464844 4.929688 8.742188 4.71875 9.0625 4.71875 L 21.183594 4.71875 C 21.652344 4.71875 21.992188 5.164062 21.867188 5.609375 L 18.539062 17.351562 C 18.453125 17.65625 18.171875 17.863281 17.855469 17.863281 Z M 9.980469 26.726562 L 11.695312 20.679688 C 11.824219 20.234375 11.484375 19.789062 11.011719 19.789062 L 4.78125 19.789062 C 4.464844 19.789062 4.183594 20 4.097656 20.300781 L 2.382812 26.347656 C 2.257812 26.796875 2.597656 27.238281 3.066406 27.238281 L 9.300781 27.238281 C 9.617188 27.238281 9.894531 27.03125 9.980469 26.726562 Z M 13.136719 20.300781 L 9.808594 32.042969 C 9.679688 32.492188 10.019531 32.933594 10.492188 32.933594 L 22.613281 32.933594 C 22.929688 32.933594 23.210938 32.726562 23.296875 32.421875 L 26.625 20.679688 C 26.75 20.234375 26.410156 19.789062 25.941406 19.789062 L 13.820312 19.789062 C 13.5 19.789062 13.222656 20 13.136719 20.300781 Z M 21.691406 10.925781 L 19.976562 16.972656 C 19.851562 17.421875 20.191406 17.863281 20.660156 17.863281 L 26.894531 17.863281 C 27.210938 17.863281 27.492188 17.65625 27.578125 17.351562 L 29.289062 11.308594 C 29.417969 10.859375 29.078125 10.414062 28.605469 10.414062 L 22.375 10.414062 C 22.058594 10.414062 21.777344 10.625 21.691406 10.925781 Z M 21.691406 10.925781 " clip-rule="nonzero"/></clipPath><linearGradient x1="114.296444" gradientTransform="matrix(0.0570049, 0, 0, 0.0564319, 2.357809, 4.718908)" y1="-47.633965" x2="358.611734" gradientUnits="userSpaceOnUse" y2="547.609372" id="26b63a8003"><stop stop-opacity="1" stop-color="rgb(0%, 98.799133%, 65.899658%)" offset="0"/><stop stop-opacity="1" stop-color="rgb(0%, 98.799133%, 65.899658%)" offset="0.0625"/><stop stop-opacity="1" stop-color="rgb(0.0213623%, 98.773193%, 65.965271%)" offset="0.09375"/><stop stop-opacity="1" stop-color="rgb(0.100708%, 98.677063%, 66.210938%)" offset="0.101563"/><stop stop-opacity="1" stop-color="rgb(0.216675%, 98.536682%, 66.571045%)" offset="0.109375"/><stop stop-opacity="1" stop-color="rgb(0.332642%, 98.396301%, 66.929626%)" offset="0.117188"/><stop stop-opacity="1" stop-color="rgb(0.448608%, 98.25592%, 67.289734%)" offset="0.125"/><stop stop-opacity="1" stop-color="rgb(0.564575%, 98.117065%, 67.649841%)" offset="0.132812"/><stop stop-opacity="1" stop-color="rgb(0.679016%, 97.976685%, 68.008423%)" offset="0.140625"/><stop stop-opacity="1" stop-color="rgb(0.794983%, 97.836304%, 68.36853%)" offset="0.148438"/><stop stop-opacity="1" stop-color="rgb(0.91095%, 97.695923%, 68.727112%)" offset="0.15625"/><stop stop-opacity="1" stop-color="rgb(1.026917%, 97.555542%, 69.087219%)" offset="0.164062"/><stop stop-opacity="1" stop-color="rgb(1.142883%, 97.415161%, 69.445801%)" offset="0.171875"/><stop stop-opacity="1" stop-color="rgb(1.25885%, 97.27478%, 69.805908%)" offset="0.179688"/><stop stop-opacity="1" stop-color="rgb(1.374817%, 97.135925%, 70.16449%)" offset="0.1875"/><stop stop-opacity="1" stop-color="rgb(1.490784%, 96.995544%, 70.524597%)" offset="0.195312"/><stop stop-opacity="1" stop-color="rgb(1.60675%, 96.855164%, 70.883179%)" offset="0.203125"/><stop stop-opacity="1" stop-color="rgb(1.722717%, 96.714783%, 71.243286%)" offset="0.210938"/><stop stop-opacity="1" stop-color="rgb(1.838684%, 96.574402%, 71.603394%)" offset="0.21875"/><stop stop-opacity="1" stop-color="rgb(1.954651%, 96.434021%, 71.961975%)" offset="0.226562"/><stop stop-opacity="1" stop-color="rgb(2.070618%, 96.29364%, 72.322083%)" offset="0.234375"/><stop stop-opacity="1" stop-color="rgb(2.186584%, 96.153259%, 72.680664%)" offset="0.242188"/><stop stop-opacity="1" stop-color="rgb(2.302551%, 96.014404%, 73.040771%)" offset="0.25"/><stop stop-opacity="1" stop-color="rgb(2.418518%, 95.874023%, 73.399353%)" offset="0.257813"/><stop stop-opacity="1" stop-color="rgb(2.534485%, 95.733643%, 73.75946%)" offset="0.265625"/><stop stop-opacity="1" stop-color="rgb(2.650452%, 95.593262%, 74.118042%)" offset="0.273438"/><stop stop-opacity="1" stop-color="rgb(2.766418%, 95.452881%, 74.478149%)" offset="0.281115"/><stop stop-opacity="1" stop-color="rgb(2.824402%, 95.38269%, 74.658203%)" offset="0.28125"/><stop stop-opacity="1" stop-color="rgb(2.882385%, 95.3125%, 74.836731%)" offset="0.289062"/><stop stop-opacity="1" stop-color="rgb(2.998352%, 95.172119%, 75.196838%)" offset="0.296875"/><stop stop-opacity="1" stop-color="rgb(3.114319%, 95.031738%, 75.556946%)" offset="0.304688"/><stop stop-opacity="1" stop-color="rgb(3.230286%, 94.892883%, 75.915527%)" offset="0.3125"/><stop stop-opacity="1" stop-color="rgb(3.346252%, 94.752502%, 76.275635%)" offset="0.320313"/><stop stop-opacity="1" stop-color="rgb(3.462219%, 94.612122%, 76.634216%)" offset="0.328125"/><stop stop-opacity="1" stop-color="rgb(3.578186%, 94.471741%, 76.994324%)" offset="0.335938"/><stop stop-opacity="1" stop-color="rgb(3.694153%, 94.33136%, 77.352905%)" offset="0.34375"/><stop stop-opacity="1" stop-color="rgb(3.81012%, 94.190979%, 77.713013%)" offset="0.351562"/><stop stop-opacity="1" stop-color="rgb(3.926086%, 94.050598%, 78.071594%)" offset="0.359375"/><stop stop-opacity="1" stop-color="rgb(4.042053%, 93.911743%, 78.431702%)" offset="0.367188"/><stop stop-opacity="1" stop-color="rgb(4.15802%, 93.771362%, 78.790283%)" offset="0.375"/><stop stop-opacity="1" stop-color="rgb(4.273987%, 93.630981%, 79.150391%)" offset="0.382813"/><stop stop-opacity="1" stop-color="rgb(4.389954%, 93.490601%, 79.510498%)" offset="0.390625"/><stop stop-opacity="1" stop-color="rgb(4.50592%, 93.35022%, 79.86908%)" offset="0.398438"/><stop stop-opacity="1" stop-color="rgb(4.621887%, 93.209839%, 80.229187%)" offset="0.40625"/><stop stop-opacity="1" stop-color="rgb(4.737854%, 93.069458%, 80.587769%)" offset="0.414063"/><stop stop-opacity="1" stop-color="rgb(4.853821%, 92.929077%, 80.947876%)" offset="0.421875"/><stop stop-opacity="1" stop-color="rgb(4.969788%, 92.790222%, 81.306458%)" offset="0.429688"/><stop stop-opacity="1" stop-color="rgb(5.085754%, 92.649841%, 81.666565%)" offset="0.4375"/><stop stop-opacity="1" stop-color="rgb(5.201721%, 92.50946%, 82.025146%)" offset="0.445312"/><stop stop-opacity="1" stop-color="rgb(5.317688%, 92.36908%, 82.385254%)" offset="0.453125"/><stop stop-opacity="1" stop-color="rgb(5.433655%, 92.228699%, 82.743835%)" offset="0.460938"/><stop stop-opacity="1" stop-color="rgb(5.549622%, 92.088318%, 83.103943%)" offset="0.46875"/><stop stop-opacity="1" stop-color="rgb(5.665588%, 91.947937%, 83.46405%)" offset="0.476563"/><stop stop-opacity="1" stop-color="rgb(5.781555%, 91.807556%, 83.822632%)" offset="0.484375"/><stop stop-opacity="1" stop-color="rgb(5.897522%, 91.668701%, 84.182739%)" offset="0.492188"/><stop stop-opacity="1" stop-color="rgb(6.013489%, 91.52832%, 84.541321%)" offset="0.5"/><stop stop-opacity="1" stop-color="rgb(6.129456%, 91.387939%, 84.901428%)" offset="0.507813"/><stop stop-opacity="1" stop-color="rgb(6.245422%, 91.247559%, 85.26001%)" offset="0.515625"/><stop stop-opacity="1" stop-color="rgb(6.361389%, 91.107178%, 85.620117%)" offset="0.523438"/><stop stop-opacity="1" stop-color="rgb(6.477356%, 90.966797%, 85.978699%)" offset="0.53125"/><stop stop-opacity="1" stop-color="rgb(6.593323%, 90.826416%, 86.338806%)" offset="0.539062"/><stop stop-opacity="1" stop-color="rgb(6.70929%, 90.687561%, 86.697388%)" offset="0.546875"/><stop stop-opacity="1" stop-color="rgb(6.825256%, 90.54718%, 87.057495%)" offset="0.554688"/><stop stop-opacity="1" stop-color="rgb(6.941223%, 90.406799%, 87.417603%)" offset="0.5625"/><stop stop-opacity="1" stop-color="rgb(7.05719%, 90.266418%, 87.776184%)" offset="0.570312"/><stop stop-opacity="1" stop-color="rgb(7.173157%, 90.126038%, 88.136292%)" offset="0.578125"/><stop stop-opacity="1" stop-color="rgb(7.289124%, 89.985657%, 88.494873%)" offset="0.585938"/><stop stop-opacity="1" stop-color="rgb(7.403564%, 89.845276%, 88.85498%)" offset="0.59375"/><stop stop-opacity="1" stop-color="rgb(7.519531%, 89.704895%, 89.213562%)" offset="0.601563"/><stop stop-opacity="1" stop-color="rgb(7.635498%, 89.56604%, 89.573669%)" offset="0.609375"/><stop stop-opacity="1" stop-color="rgb(7.751465%, 89.425659%, 89.932251%)" offset="0.617188"/><stop stop-opacity="1" stop-color="rgb(7.867432%, 89.285278%, 90.292358%)" offset="0.625"/><stop stop-opacity="1" stop-color="rgb(7.983398%, 89.144897%, 90.652466%)" offset="0.632812"/><stop stop-opacity="1" stop-color="rgb(8.099365%, 89.004517%, 91.011047%)" offset="0.640625"/><stop stop-opacity="1" stop-color="rgb(8.215332%, 88.864136%, 91.371155%)" offset="0.648438"/><stop stop-opacity="1" stop-color="rgb(8.331299%, 88.723755%, 91.729736%)" offset="0.65625"/><stop stop-opacity="1" stop-color="rgb(8.447266%, 88.583374%, 92.089844%)" offset="0.664062"/><stop stop-opacity="1" stop-color="rgb(8.563232%, 88.444519%, 92.448425%)" offset="0.671875"/><stop stop-opacity="1" stop-color="rgb(8.679199%, 88.304138%, 92.808533%)" offset="0.679688"/><stop stop-opacity="1" stop-color="rgb(8.795166%, 88.163757%, 93.167114%)" offset="0.6875"/><stop stop-opacity="1" stop-color="rgb(8.911133%, 88.023376%, 93.527222%)" offset="0.695313"/><stop stop-opacity="1" stop-color="rgb(9.0271%, 87.882996%, 93.885803%)" offset="0.703125"/><stop stop-opacity="1" stop-color="rgb(9.143066%, 87.742615%, 94.245911%)" offset="0.710938"/><stop stop-opacity="1" stop-color="rgb(9.259033%, 87.602234%, 94.606018%)" offset="0.71875"/><stop stop-opacity="1" stop-color="rgb(9.375%, 87.463379%, 94.9646%)" offset="0.718885"/><stop stop-opacity="1" stop-color="rgb(9.432983%, 87.393188%, 95.144653%)" offset="0.726563"/><stop stop-opacity="1" stop-color="rgb(9.490967%, 87.322998%, 95.324707%)" offset="0.734375"/><stop stop-opacity="1" stop-color="rgb(9.606934%, 87.182617%, 95.683289%)" offset="0.742188"/><stop stop-opacity="1" stop-color="rgb(9.7229%, 87.042236%, 96.043396%)" offset="0.75"/><stop stop-opacity="1" stop-color="rgb(9.838867%, 86.901855%, 96.401978%)" offset="0.757812"/><stop stop-opacity="1" stop-color="rgb(9.954834%, 86.761475%, 96.762085%)" offset="0.765625"/><stop stop-opacity="1" stop-color="rgb(10.070801%, 86.621094%, 97.120667%)" offset="0.773438"/><stop stop-opacity="1" stop-color="rgb(10.186768%, 86.480713%, 97.480774%)" offset="0.78125"/><stop stop-opacity="1" stop-color="rgb(10.302734%, 86.341858%, 97.839355%)" offset="0.789062"/><stop stop-opacity="1" stop-color="rgb(10.418701%, 86.201477%, 98.199463%)" offset="0.796875"/><stop stop-opacity="1" stop-color="rgb(10.534668%, 86.061096%, 98.55957%)" offset="0.804688"/><stop stop-opacity="1" stop-color="rgb(10.650635%, 85.920715%, 98.918152%)" offset="0.8125"/><stop stop-opacity="1" stop-color="rgb(10.766602%, 85.780334%, 99.278259%)" offset="0.820313"/><stop stop-opacity="1" stop-color="rgb(10.882568%, 85.639954%, 99.636841%)" offset="0.828125"/><stop stop-opacity="1" stop-color="rgb(10.969543%, 85.534668%, 99.908447%)" offset="0.84375"/><stop stop-opacity="1" stop-color="rgb(10.998535%, 85.499573%, 100%)" offset="0.875"/><stop stop-opacity="1" stop-color="rgb(10.998535%, 85.499573%, 100%)" offset="1"/></linearGradient></defs><g clip-path="url(#0ce24fa015)"><g clip-path="url(#cabc1a1e07)"><path fill="url(#26b63a8003)" d="M 2.257812 4.71875 L 2.257812 32.933594 L 29.414062 32.933594 L 29.414062 4.71875 Z M 2.257812 4.71875 " fill-rule="nonzero"/></g></g><g fill="#ffffff" fill-opacity="1"><g transform="translate(33.938471, 19.184888)"><g><path d="M 5.328125 0.140625 C 4.378906 0.140625 3.5625 -0.0234375 2.875 -0.359375 C 2.195312 -0.703125 1.671875 -1.175781 1.296875 -1.78125 C 0.929688 -2.394531 0.75 -3.097656 0.75 -3.890625 C 0.75 -4.941406 0.988281 -5.894531 1.46875 -6.75 C 1.957031 -7.613281 2.640625 -8.296875 3.515625 -8.796875 C 4.398438 -9.296875 5.410156 -9.546875 6.546875 -9.546875 C 7.359375 -9.546875 8.078125 -9.410156 8.703125 -9.140625 C 9.328125 -8.867188 9.800781 -8.476562 10.125 -7.96875 L 8.859375 -6.90625 C 8.328125 -7.644531 7.515625 -8.015625 6.421875 -8.015625 C 5.640625 -8.015625 4.953125 -7.832031 4.359375 -7.46875 C 3.773438 -7.113281 3.320312 -6.628906 3 -6.015625 C 2.675781 -5.398438 2.515625 -4.722656 2.515625 -3.984375 C 2.515625 -3.191406 2.769531 -2.5625 3.28125 -2.09375 C 3.789062 -1.625 4.515625 -1.390625 5.453125 -1.390625 C 6.535156 -1.390625 7.425781 -1.753906 8.125 -2.484375 L 9.15625 -1.390625 C 8.707031 -0.878906 8.15625 -0.492188 7.5 -0.234375 C 6.84375 0.015625 6.117188 0.140625 5.328125 0.140625 Z M 5.328125 0.140625 "/></g></g></g><g fill="#ffffff" fill-opacity="1"><g transform="translate(43.70611, 19.184888)"><g><path d="M 7.171875 -2.171875 L 2.453125 -2.171875 L 1.09375 0 L -0.78125 0 L 5.328125 -9.40625 L 7.0625 -9.40625 L 9.40625 0 L 7.671875 0 Z M 6.859375 -3.546875 L 5.90625 -7.6875 L 3.3125 -3.546875 Z M 6.859375 -3.546875 "/></g></g></g><g fill="#ffffff" fill-opacity="1"><g transform="translate(53.769336, 19.184888)"><g><path d="M 12.71875 -9.40625 L 10.84375 0 L 9.1875 0 L 10.421875 -6.171875 L 6.390625 -1.078125 L 5.609375 -1.078125 L 3.46875 -6.28125 L 2.21875 0 L 0.546875 0 L 2.4375 -9.40625 L 3.859375 -9.40625 L 6.34375 -3.140625 L 11.21875 -9.40625 Z M 12.71875 -9.40625 "/></g></g></g><g fill="#ffffff" fill-opacity="1"><g transform="translate(66.600282, 19.184888)"><g><path d="M 2.4375 -9.40625 L 4.171875 -9.40625 L 2.296875 0 L 0.546875 0 Z M 2.4375 -9.40625 "/></g></g></g><g fill="#ffffff" fill-opacity="1"><g transform="translate(70.886222, 19.184888)"><g><path d="M 2.4375 -9.40625 L 4.171875 -9.40625 L 2.59375 -1.484375 L 7.515625 -1.484375 L 7.21875 0 L 0.546875 0 Z M 2.4375 -9.40625 "/></g></g></g><g fill="#ffffff" fill-opacity="1"><g transform="translate(78.934111, 19.184888)"><g><path d="M 5.25 0.140625 C 4.320312 0.140625 3.519531 -0.0234375 2.84375 -0.359375 C 2.164062 -0.703125 1.644531 -1.175781 1.28125 -1.78125 C 0.925781 -2.382812 0.75 -3.085938 0.75 -3.890625 C 0.75 -4.941406 0.988281 -5.894531 1.46875 -6.75 C 1.945312 -7.613281 2.625 -8.296875 3.5 -8.796875 C 4.382812 -9.296875 5.390625 -9.546875 6.515625 -9.546875 C 7.453125 -9.546875 8.253906 -9.375 8.921875 -9.03125 C 9.597656 -8.695312 10.113281 -8.226562 10.46875 -7.625 C 10.832031 -7.019531 11.015625 -6.316406 11.015625 -5.515625 C 11.015625 -4.460938 10.773438 -3.503906 10.296875 -2.640625 C 9.816406 -1.785156 9.140625 -1.109375 8.265625 -0.609375 C 7.390625 -0.109375 6.382812 0.140625 5.25 0.140625 Z M 5.40625 -1.390625 C 6.164062 -1.390625 6.835938 -1.570312 7.421875 -1.9375 C 8.003906 -2.300781 8.457031 -2.789062 8.78125 -3.40625 C 9.101562 -4.019531 9.265625 -4.691406 9.265625 -5.421875 C 9.265625 -6.203125 9.007812 -6.828125 8.5 -7.296875 C 7.988281 -7.773438 7.273438 -8.015625 6.359375 -8.015625 C 5.597656 -8.015625 4.921875 -7.832031 4.328125 -7.46875 C 3.742188 -7.101562 3.296875 -6.613281 2.984375 -6 C 2.671875 -5.382812 2.515625 -4.710938 2.515625 -3.984375 C 2.515625 -3.203125 2.765625 -2.570312 3.265625 -2.09375 C 3.765625 -1.625 4.476562 -1.390625 5.40625 -1.390625 Z M 5.40625 -1.390625 "/></g></g></g><g fill="#ffffff" fill-opacity="1"><g transform="translate(90.246838, 19.184888)"><g/></g></g><g fill="#ffffff" fill-opacity="1"><g transform="translate(93.95505, 19.184888)"><g><path d="M 2.4375 -9.40625 L 4.171875 -9.40625 L 2.59375 -1.484375 L 7.515625 -1.484375 L 7.21875 0 L 0.546875 0 Z M 2.4375 -9.40625 "/></g></g></g><g fill="#ffffff" fill-opacity="1"><g transform="translate(102.002939, 19.184888)"><g><path d="M 3.875 -7.9375 L 3.390625 -5.5 L 7.9375 -5.5 L 7.65625 -4.0625 L 3.09375 -4.0625 L 2.578125 -1.46875 L 7.90625 -1.46875 L 7.609375 0 L 0.546875 0 L 2.4375 -9.40625 L 9.296875 -9.40625 L 9 -7.9375 Z M 3.875 -7.9375 "/></g></g></g><g fill="#ffffff" fill-opacity="1"><g transform="translate(111.004754, 19.184888)"><g><path d="M 5.25 0.140625 C 4.320312 0.140625 3.519531 -0.0234375 2.84375 -0.359375 C 2.164062 -0.703125 1.644531 -1.175781 1.28125 -1.78125 C 0.925781 -2.382812 0.75 -3.085938 0.75 -3.890625 C 0.75 -4.941406 0.988281 -5.894531 1.46875 -6.75 C 1.945312 -7.613281 2.625 -8.296875 3.5 -8.796875 C 4.382812 -9.296875 5.390625 -9.546875 6.515625 -9.546875 C 7.453125 -9.546875 8.253906 -9.375 8.921875 -9.03125 C 9.597656 -8.695312 10.113281 -8.226562 10.46875 -7.625 C 10.832031 -7.019531 11.015625 -6.316406 11.015625 -5.515625 C 11.015625 -4.460938 10.773438 -3.503906 10.296875 -2.640625 C 9.816406 -1.785156 9.140625 -1.109375 8.265625 -0.609375 C 7.390625 -0.109375 6.382812 0.140625 5.25 0.140625 Z M 5.40625 -1.390625 C 6.164062 -1.390625 6.835938 -1.570312 7.421875 -1.9375 C 8.003906 -2.300781 8.457031 -2.789062 8.78125 -3.40625 C 9.101562 -4.019531 9.265625 -4.691406 9.265625 -5.421875 C 9.265625 -6.203125 9.007812 -6.828125 8.5 -7.296875 C 7.988281 -7.773438 7.273438 -8.015625 6.359375 -8.015625 C 5.597656 -8.015625 4.921875 -7.832031 4.328125 -7.46875 C 3.742188 -7.101562 3.296875 -6.613281 2.984375 -6 C 2.671875 -5.382812 2.515625 -4.710938 2.515625 -3.984375 C 2.515625 -3.203125 2.765625 -2.570312 3.265625 -2.09375 C 3.765625 -1.625 4.476562 -1.390625 5.40625 -1.390625 Z M 7.828125 -12.015625 L 9.84375 -12.015625 L 7.3125 -10.171875 L 5.796875 -10.171875 Z M 7.828125 -12.015625 "/></g></g></g><g fill="#ffffff" fill-opacity="1"><g transform="translate(122.317486, 19.184888)"><g><path d="M 10.78125 -9.40625 L 8.890625 0 L 7.453125 0 L 3.59375 -6.578125 L 2.28125 0 L 0.546875 0 L 2.4375 -9.40625 L 3.875 -9.40625 L 7.734375 -2.828125 L 9.046875 -9.40625 Z M 10.78125 -9.40625 "/></g></g></g><g fill="#00fca8" fill-opacity="1"><g transform="translate(51.325423, 24.173607)"><g><path d="M 1.578125 0 L 1.15625 0 L 1.15625 -3.171875 L 0.046875 -3.171875 L 0.046875 -3.53125 L 2.6875 -3.53125 L 2.6875 -3.171875 L 1.578125 -3.171875 Z M 1.578125 0 "/></g></g></g><g fill="#00fca8" fill-opacity="1"><g transform="translate(54.066268, 24.173607)"><g><path d="M 1.546875 0.046875 C 1.148438 0.046875 0.835938 -0.0703125 0.609375 -0.3125 C 0.390625 -0.550781 0.28125 -0.878906 0.28125 -1.296875 C 0.28125 -1.722656 0.382812 -2.0625 0.59375 -2.3125 C 0.800781 -2.570312 1.082031 -2.703125 1.4375 -2.703125 C 1.769531 -2.703125 2.03125 -2.59375 2.21875 -2.375 C 2.414062 -2.15625 2.515625 -1.863281 2.515625 -1.5 L 2.515625 -1.25 L 0.6875 -1.25 C 0.695312 -0.9375 0.773438 -0.695312 0.921875 -0.53125 C 1.078125 -0.375 1.289062 -0.296875 1.5625 -0.296875 C 1.84375 -0.296875 2.125 -0.359375 2.40625 -0.484375 L 2.40625 -0.125 C 2.257812 -0.0625 2.125 -0.0195312 2 0 C 1.875 0.03125 1.722656 0.046875 1.546875 0.046875 Z M 1.4375 -2.359375 C 1.226562 -2.359375 1.054688 -2.289062 0.921875 -2.15625 C 0.796875 -2.019531 0.722656 -1.828125 0.703125 -1.578125 L 2.09375 -1.578125 C 2.09375 -1.828125 2.035156 -2.019531 1.921875 -2.15625 C 1.804688 -2.289062 1.644531 -2.359375 1.4375 -2.359375 Z M 1.4375 -2.359375 "/></g></g></g><g fill="#00fca8" fill-opacity="1"><g transform="translate(56.845818, 24.173607)"><g><path d="M 1.484375 0.046875 C 1.097656 0.046875 0.800781 -0.0664062 0.59375 -0.296875 C 0.382812 -0.535156 0.28125 -0.875 0.28125 -1.3125 C 0.28125 -1.75 0.382812 -2.085938 0.59375 -2.328125 C 0.8125 -2.578125 1.117188 -2.703125 1.515625 -2.703125 C 1.640625 -2.703125 1.765625 -2.6875 1.890625 -2.65625 C 2.015625 -2.625 2.113281 -2.59375 2.1875 -2.5625 L 2.0625 -2.21875 C 1.976562 -2.25 1.882812 -2.273438 1.78125 -2.296875 C 1.675781 -2.328125 1.582031 -2.34375 1.5 -2.34375 C 0.957031 -2.34375 0.6875 -2 0.6875 -1.3125 C 0.6875 -0.988281 0.753906 -0.738281 0.890625 -0.5625 C 1.023438 -0.382812 1.21875 -0.296875 1.46875 -0.296875 C 1.695312 -0.296875 1.925781 -0.34375 2.15625 -0.4375 L 2.15625 -0.09375 C 1.976562 0 1.753906 0.046875 1.484375 0.046875 Z M 1.484375 0.046875 "/></g></g></g><g fill="#00fca8" fill-opacity="1"><g transform="translate(59.204445, 24.173607)"><g><path d="M 2.234375 0 L 2.234375 -1.71875 C 2.234375 -1.925781 2.179688 -2.082031 2.078125 -2.1875 C 1.984375 -2.300781 1.832031 -2.359375 1.625 -2.359375 C 1.351562 -2.359375 1.148438 -2.28125 1.015625 -2.125 C 0.890625 -1.976562 0.828125 -1.734375 0.828125 -1.390625 L 0.828125 0 L 0.421875 0 L 0.421875 -3.765625 L 0.828125 -3.765625 L 0.828125 -2.625 C 0.828125 -2.488281 0.820312 -2.375 0.8125 -2.28125 L 0.828125 -2.28125 C 0.910156 -2.40625 1.023438 -2.503906 1.171875 -2.578125 C 1.316406 -2.648438 1.484375 -2.6875 1.671875 -2.6875 C 1.992188 -2.6875 2.234375 -2.609375 2.390625 -2.453125 C 2.554688 -2.304688 2.640625 -2.066406 2.640625 -1.734375 L 2.640625 0 Z M 2.234375 0 "/></g></g></g><g fill="#00fca8" fill-opacity="1"><g transform="translate(62.245259, 24.173607)"><g/></g></g><g fill="#00fca8" fill-opacity="1"><g transform="translate(63.532221, 24.173607)"><g><path d="M 0.828125 0 L 0.421875 0 L 0.421875 -3.765625 L 0.828125 -3.765625 Z M 0.828125 0 "/></g></g></g><g fill="#00fca8" fill-opacity="1"><g transform="translate(64.785316, 24.173607)"><g><path d="M 2.71875 -1.328125 C 2.71875 -0.890625 2.609375 -0.550781 2.390625 -0.3125 C 2.171875 -0.0703125 1.867188 0.046875 1.484375 0.046875 C 1.242188 0.046875 1.03125 -0.00390625 0.84375 -0.109375 C 0.664062 -0.222656 0.523438 -0.382812 0.421875 -0.59375 C 0.328125 -0.800781 0.28125 -1.046875 0.28125 -1.328125 C 0.28125 -1.753906 0.382812 -2.085938 0.59375 -2.328125 C 0.8125 -2.578125 1.113281 -2.703125 1.5 -2.703125 C 1.875 -2.703125 2.171875 -2.578125 2.390625 -2.328125 C 2.609375 -2.078125 2.71875 -1.742188 2.71875 -1.328125 Z M 0.6875 -1.328125 C 0.6875 -0.984375 0.753906 -0.722656 0.890625 -0.546875 C 1.023438 -0.367188 1.226562 -0.28125 1.5 -0.28125 C 1.757812 -0.28125 1.957031 -0.367188 2.09375 -0.546875 C 2.226562 -0.722656 2.296875 -0.984375 2.296875 -1.328125 C 2.296875 -1.660156 2.226562 -1.914062 2.09375 -2.09375 C 1.957031 -2.269531 1.753906 -2.359375 1.484375 -2.359375 C 1.222656 -2.359375 1.023438 -2.269531 0.890625 -2.09375 C 0.753906 -1.925781 0.6875 -1.671875 0.6875 -1.328125 Z M 0.6875 -1.328125 "/></g></g></g><g fill="#00fca8" fill-opacity="1"><g transform="translate(67.777747, 24.173607)"><g><path d="M 1 0 L 0 -2.65625 L 0.4375 -2.65625 L 1 -1.078125 C 1.125 -0.710938 1.203125 -0.472656 1.234375 -0.359375 L 1.25 -0.359375 C 1.269531 -0.441406 1.328125 -0.617188 1.421875 -0.890625 C 1.515625 -1.160156 1.722656 -1.75 2.046875 -2.65625 L 2.484375 -2.65625 L 1.46875 0 Z M 1 0 "/></g></g></g><g fill="#00fca8" fill-opacity="1"><g transform="translate(70.259746, 24.173607)"><g><path d="M 1.546875 0.046875 C 1.148438 0.046875 0.835938 -0.0703125 0.609375 -0.3125 C 0.390625 -0.550781 0.28125 -0.878906 0.28125 -1.296875 C 0.28125 -1.722656 0.382812 -2.0625 0.59375 -2.3125 C 0.800781 -2.570312 1.082031 -2.703125 1.4375 -2.703125 C 1.769531 -2.703125 2.03125 -2.59375 2.21875 -2.375 C 2.414062 -2.15625 2.515625 -1.863281 2.515625 -1.5 L 2.515625 -1.25 L 0.6875 -1.25 C 0.695312 -0.9375 0.773438 -0.695312 0.921875 -0.53125 C 1.078125 -0.375 1.289062 -0.296875 1.5625 -0.296875 C 1.84375 -0.296875 2.125 -0.359375 2.40625 -0.484375 L 2.40625 -0.125 C 2.257812 -0.0625 2.125 -0.0195312 2 0 C 1.875 0.03125 1.722656 0.046875 1.546875 0.046875 Z M 1.4375 -2.359375 C 1.226562 -2.359375 1.054688 -2.289062 0.921875 -2.15625 C 0.796875 -2.019531 0.722656 -1.828125 0.703125 -1.578125 L 2.09375 -1.578125 C 2.09375 -1.828125 2.035156 -2.019531 1.921875 -2.15625 C 1.804688 -2.289062 1.644531 -2.359375 1.4375 -2.359375 Z M 1.4375 -2.359375 "/></g></g></g><g fill="#00fca8" fill-opacity="1"><g transform="translate(73.039297, 24.173607)"><g><path d="M 1.640625 -2.703125 C 1.753906 -2.703125 1.859375 -2.691406 1.953125 -2.671875 L 1.890625 -2.296875 C 1.785156 -2.316406 1.691406 -2.328125 1.609375 -2.328125 C 1.390625 -2.328125 1.203125 -2.238281 1.046875 -2.0625 C 0.898438 -1.894531 0.828125 -1.679688 0.828125 -1.421875 L 0.828125 0 L 0.421875 0 L 0.421875 -2.65625 L 0.75 -2.65625 L 0.796875 -2.15625 L 0.828125 -2.15625 C 0.921875 -2.332031 1.035156 -2.46875 1.171875 -2.5625 C 1.316406 -2.65625 1.472656 -2.703125 1.640625 -2.703125 Z M 1.640625 -2.703125 "/></g></g></g><g fill="#00fca8" fill-opacity="1"><g transform="translate(75.061666, 24.173607)"><g/></g></g><g fill="#00fca8" fill-opacity="1"><g transform="translate(76.348628, 24.173607)"><g><path d="M 1.1875 -3.765625 L 1.53125 -3.765625 L 1.53125 1.203125 L 1.1875 1.203125 Z M 1.1875 -3.765625 "/></g></g></g><g fill="#00fca8" fill-opacity="1"><g transform="translate(79.077375, 24.173607)"><g/></g></g><g fill="#00fca8" fill-opacity="1"><g transform="translate(80.364337, 24.173607)"><g><path d="M 2.703125 0 L 2.265625 -1.125 L 0.84375 -1.125 L 0.421875 0 L 0 0 L 1.390625 -3.546875 L 1.75 -3.546875 L 3.140625 0 Z M 2.140625 -1.5 L 1.734375 -2.59375 C 1.679688 -2.726562 1.625 -2.894531 1.5625 -3.09375 C 1.53125 -2.945312 1.476562 -2.78125 1.40625 -2.59375 L 1 -1.5 Z M 2.140625 -1.5 "/></g></g></g><g fill="#00fca8" fill-opacity="1"><g transform="translate(83.499493, 24.173607)"><g><path d="M 0.828125 0 L 0.421875 0 L 0.421875 -3.765625 L 0.828125 -3.765625 Z M 0.828125 0 "/></g></g></g><g fill="#00fca8" fill-opacity="1"><g transform="translate(84.752587, 24.173607)"><g><path d="M 2.59375 0 L 2.109375 -1.5625 C 2.078125 -1.65625 2.019531 -1.867188 1.9375 -2.203125 L 1.90625 -2.203125 C 1.84375 -1.921875 1.789062 -1.703125 1.75 -1.546875 L 1.25 0 L 0.78125 0 L 0.0625 -2.65625 L 0.46875 -2.65625 C 0.644531 -1.988281 0.773438 -1.476562 0.859375 -1.125 C 0.953125 -0.78125 1.003906 -0.546875 1.015625 -0.421875 L 1.046875 -0.421875 C 1.054688 -0.515625 1.082031 -0.632812 1.125 -0.78125 C 1.164062 -0.925781 1.203125 -1.039062 1.234375 -1.125 L 1.71875 -2.65625 L 2.15625 -2.65625 L 2.625 -1.125 C 2.71875 -0.851562 2.78125 -0.625 2.8125 -0.4375 L 2.828125 -0.4375 C 2.835938 -0.488281 2.851562 -0.570312 2.875 -0.6875 C 2.90625 -0.8125 3.078125 -1.46875 3.390625 -2.65625 L 3.796875 -2.65625 L 3.0625 0 Z M 2.59375 0 "/></g></g></g><g fill="#00fca8" fill-opacity="1"><g transform="translate(88.606219, 24.173607)"><g><path d="M 2.0625 0 L 1.96875 -0.375 L 1.953125 -0.375 C 1.828125 -0.207031 1.695312 -0.09375 1.5625 -0.03125 C 1.425781 0.0195312 1.257812 0.046875 1.0625 0.046875 C 0.800781 0.046875 0.597656 -0.0195312 0.453125 -0.15625 C 0.304688 -0.289062 0.234375 -0.484375 0.234375 -0.734375 C 0.234375 -1.265625 0.660156 -1.546875 1.515625 -1.578125 L 1.96875 -1.59375 L 1.96875 -1.75 C 1.96875 -1.957031 1.921875 -2.109375 1.828125 -2.203125 C 1.734375 -2.304688 1.585938 -2.359375 1.390625 -2.359375 C 1.171875 -2.359375 0.921875 -2.289062 0.640625 -2.15625 L 0.53125 -2.46875 C 0.65625 -2.539062 0.796875 -2.59375 0.953125 -2.625 C 1.109375 -2.664062 1.265625 -2.6875 1.421875 -2.6875 C 1.734375 -2.6875 1.96875 -2.613281 2.125 -2.46875 C 2.28125 -2.332031 2.359375 -2.113281 2.359375 -1.8125 L 2.359375 0 Z M 1.15625 -0.28125 C 1.40625 -0.28125 1.597656 -0.347656 1.734375 -0.484375 C 1.878906 -0.617188 1.953125 -0.8125 1.953125 -1.0625 L 1.953125 -1.296875 L 1.546875 -1.28125 C 1.234375 -1.269531 1.003906 -1.21875 0.859375 -1.125 C 0.710938 -1.039062 0.640625 -0.910156 0.640625 -0.734375 C 0.640625 -0.585938 0.679688 -0.472656 0.765625 -0.390625 C 0.859375 -0.316406 0.988281 -0.28125 1.15625 -0.28125 Z M 1.15625 -0.28125 "/></g></g></g><g fill="#00fca8" fill-opacity="1"><g transform="translate(91.361579, 24.173607)"><g><path d="M 0 -2.65625 L 0.4375 -2.65625 L 1.015625 -1.140625 C 1.140625 -0.796875 1.21875 -0.546875 1.25 -0.390625 L 1.265625 -0.390625 C 1.285156 -0.472656 1.328125 -0.613281 1.390625 -0.8125 C 1.460938 -1.007812 1.6875 -1.625 2.0625 -2.65625 L 2.484375 -2.65625 L 1.359375 0.375 C 1.242188 0.664062 1.109375 0.875 0.953125 1 C 0.804688 1.125 0.625 1.1875 0.40625 1.1875 C 0.28125 1.1875 0.15625 1.175781 0.03125 1.15625 L 0.03125 0.828125 C 0.125 0.847656 0.226562 0.859375 0.34375 0.859375 C 0.613281 0.859375 0.804688 0.703125 0.921875 0.390625 L 1.078125 0.015625 Z M 0 -2.65625 "/></g></g></g><g fill="#00fca8" fill-opacity="1"><g transform="translate(93.858092, 24.173607)"><g><path d="M 2.140625 -0.71875 C 2.140625 -0.476562 2.046875 -0.289062 1.859375 -0.15625 C 1.671875 -0.0195312 1.410156 0.046875 1.078125 0.046875 C 0.734375 0.046875 0.460938 -0.0078125 0.265625 -0.125 L 0.265625 -0.484375 C 0.390625 -0.421875 0.523438 -0.367188 0.671875 -0.328125 C 0.816406 -0.296875 0.957031 -0.28125 1.09375 -0.28125 C 1.300781 -0.28125 1.460938 -0.3125 1.578125 -0.375 C 1.691406 -0.445312 1.75 -0.550781 1.75 -0.6875 C 1.75 -0.789062 1.703125 -0.878906 1.609375 -0.953125 C 1.523438 -1.023438 1.351562 -1.113281 1.09375 -1.21875 C 0.84375 -1.3125 0.664062 -1.390625 0.5625 -1.453125 C 0.457031 -1.523438 0.378906 -1.601562 0.328125 -1.6875 C 0.273438 -1.769531 0.25 -1.875 0.25 -2 C 0.25 -2.21875 0.335938 -2.390625 0.515625 -2.515625 C 0.691406 -2.640625 0.9375 -2.703125 1.25 -2.703125 C 1.53125 -2.703125 1.804688 -2.644531 2.078125 -2.53125 L 1.9375 -2.203125 C 1.664062 -2.304688 1.425781 -2.359375 1.21875 -2.359375 C 1.019531 -2.359375 0.875 -2.328125 0.78125 -2.265625 C 0.6875 -2.210938 0.640625 -2.132812 0.640625 -2.03125 C 0.640625 -1.957031 0.65625 -1.894531 0.6875 -1.84375 C 0.726562 -1.789062 0.785156 -1.742188 0.859375 -1.703125 C 0.941406 -1.660156 1.097656 -1.59375 1.328125 -1.5 C 1.640625 -1.382812 1.851562 -1.269531 1.96875 -1.15625 C 2.082031 -1.039062 2.140625 -0.894531 2.140625 -0.71875 Z M 2.140625 -0.71875 "/></g></g></g><g fill="#00fca8" fill-opacity="1"><g transform="translate(96.221557, 24.173607)"><g/></g></g><g fill="#00fca8" fill-opacity="1"><g transform="translate(97.508519, 24.173607)"><g><path d="M 0.828125 0 L 0.421875 0 L 0.421875 -3.765625 L 0.828125 -3.765625 Z M 0.828125 0 "/></g></g></g><g fill="#00fca8" fill-opacity="1"><g transform="translate(98.761614, 24.173607)"><g><path d="M 1.546875 0.046875 C 1.148438 0.046875 0.835938 -0.0703125 0.609375 -0.3125 C 0.390625 -0.550781 0.28125 -0.878906 0.28125 -1.296875 C 0.28125 -1.722656 0.382812 -2.0625 0.59375 -2.3125 C 0.800781 -2.570312 1.082031 -2.703125 1.4375 -2.703125 C 1.769531 -2.703125 2.03125 -2.59375 2.21875 -2.375 C 2.414062 -2.15625 2.515625 -1.863281 2.515625 -1.5 L 2.515625 -1.25 L 0.6875 -1.25 C 0.695312 -0.9375 0.773438 -0.695312 0.921875 -0.53125 C 1.078125 -0.375 1.289062 -0.296875 1.5625 -0.296875 C 1.84375 -0.296875 2.125 -0.359375 2.40625 -0.484375 L 2.40625 -0.125 C 2.257812 -0.0625 2.125 -0.0195312 2 0 C 1.875 0.03125 1.722656 0.046875 1.546875 0.046875 Z M 1.4375 -2.359375 C 1.226562 -2.359375 1.054688 -2.289062 0.921875 -2.15625 C 0.796875 -2.019531 0.722656 -1.828125 0.703125 -1.578125 L 2.09375 -1.578125 C 2.09375 -1.828125 2.035156 -2.019531 1.921875 -2.15625 C 1.804688 -2.289062 1.644531 -2.359375 1.4375 -2.359375 Z M 1.4375 -2.359375 "/></g></g></g><g fill="#00fca8" fill-opacity="1"><g transform="translate(101.541165, 24.173607)"><g><path d="M 2.0625 0 L 1.96875 -0.375 L 1.953125 -0.375 C 1.828125 -0.207031 1.695312 -0.09375 1.5625 -0.03125 C 1.425781 0.0195312 1.257812 0.046875 1.0625 0.046875 C 0.800781 0.046875 0.597656 -0.0195312 0.453125 -0.15625 C 0.304688 -0.289062 0.234375 -0.484375 0.234375 -0.734375 C 0.234375 -1.265625 0.660156 -1.546875 1.515625 -1.578125 L 1.96875 -1.59375 L 1.96875 -1.75 C 1.96875 -1.957031 1.921875 -2.109375 1.828125 -2.203125 C 1.734375 -2.304688 1.585938 -2.359375 1.390625 -2.359375 C 1.171875 -2.359375 0.921875 -2.289062 0.640625 -2.15625 L 0.53125 -2.46875 C 0.65625 -2.539062 0.796875 -2.59375 0.953125 -2.625 C 1.109375 -2.664062 1.265625 -2.6875 1.421875 -2.6875 C 1.734375 -2.6875 1.96875 -2.613281 2.125 -2.46875 C 2.28125 -2.332031 2.359375 -2.113281 2.359375 -1.8125 L 2.359375 0 Z M 1.15625 -0.28125 C 1.40625 -0.28125 1.597656 -0.347656 1.734375 -0.484375 C 1.878906 -0.617188 1.953125 -0.8125 1.953125 -1.0625 L 1.953125 -1.296875 L 1.546875 -1.28125 C 1.234375 -1.269531 1.003906 -1.21875 0.859375 -1.125 C 0.710938 -1.039062 0.640625 -0.910156 0.640625 -0.734375 C 0.640625 -0.585938 0.679688 -0.472656 0.765625 -0.390625 C 0.859375 -0.316406 0.988281 -0.28125 1.15625 -0.28125 Z M 1.15625 -0.28125 "/></g></g></g><g fill="#00fca8" fill-opacity="1"><g transform="translate(104.296524, 24.173607)"><g><path d="M 1.640625 -2.703125 C 1.753906 -2.703125 1.859375 -2.691406 1.953125 -2.671875 L 1.890625 -2.296875 C 1.785156 -2.316406 1.691406 -2.328125 1.609375 -2.328125 C 1.390625 -2.328125 1.203125 -2.238281 1.046875 -2.0625 C 0.898438 -1.894531 0.828125 -1.679688 0.828125 -1.421875 L 0.828125 0 L 0.421875 0 L 0.421875 -2.65625 L 0.75 -2.65625 L 0.796875 -2.15625 L 0.828125 -2.15625 C 0.921875 -2.332031 1.035156 -2.46875 1.171875 -2.5625 C 1.316406 -2.65625 1.472656 -2.703125 1.640625 -2.703125 Z M 1.640625 -2.703125 "/></g></g></g><g fill="#00fca8" fill-opacity="1"><g transform="translate(106.318893, 24.173607)"><g><path d="M 2.234375 0 L 2.234375 -1.71875 C 2.234375 -1.925781 2.179688 -2.082031 2.078125 -2.1875 C 1.984375 -2.300781 1.832031 -2.359375 1.625 -2.359375 C 1.351562 -2.359375 1.148438 -2.28125 1.015625 -2.125 C 0.890625 -1.976562 0.828125 -1.734375 0.828125 -1.390625 L 0.828125 0 L 0.421875 0 L 0.421875 -2.65625 L 0.75 -2.65625 L 0.8125 -2.28125 L 0.84375 -2.28125 C 0.914062 -2.414062 1.023438 -2.519531 1.171875 -2.59375 C 1.328125 -2.664062 1.492188 -2.703125 1.671875 -2.703125 C 1.992188 -2.703125 2.234375 -2.625 2.390625 -2.46875 C 2.554688 -2.3125 2.640625 -2.066406 2.640625 -1.734375 L 2.640625 0 Z M 2.234375 0 "/></g></g></g><g fill="#00fca8" fill-opacity="1"><g transform="translate(109.359707, 24.173607)"><g><path d="M 0.828125 0 L 0.421875 0 L 0.421875 -2.65625 L 0.828125 -2.65625 Z M 0.390625 -3.375 C 0.390625 -3.457031 0.410156 -3.519531 0.453125 -3.5625 C 0.503906 -3.613281 0.5625 -3.640625 0.625 -3.640625 C 0.6875 -3.640625 0.738281 -3.613281 0.78125 -3.5625 C 0.832031 -3.519531 0.859375 -3.457031 0.859375 -3.375 C 0.859375 -3.28125 0.832031 -3.207031 0.78125 -3.15625 C 0.738281 -3.113281 0.6875 -3.09375 0.625 -3.09375 C 0.5625 -3.09375 0.503906 -3.113281 0.453125 -3.15625 C 0.410156 -3.207031 0.390625 -3.28125 0.390625 -3.375 Z M 0.390625 -3.375 "/></g></g></g><g fill="#00fca8" fill-opacity="1"><g transform="translate(110.612802, 24.173607)"><g><path d="M 2.234375 0 L 2.234375 -1.71875 C 2.234375 -1.925781 2.179688 -2.082031 2.078125 -2.1875 C 1.984375 -2.300781 1.832031 -2.359375 1.625 -2.359375 C 1.351562 -2.359375 1.148438 -2.28125 1.015625 -2.125 C 0.890625 -1.976562 0.828125 -1.734375 0.828125 -1.390625 L 0.828125 0 L 0.421875 0 L 0.421875 -2.65625 L 0.75 -2.65625 L 0.8125 -2.28125 L 0.84375 -2.28125 C 0.914062 -2.414062 1.023438 -2.519531 1.171875 -2.59375 C 1.328125 -2.664062 1.492188 -2.703125 1.671875 -2.703125 C 1.992188 -2.703125 2.234375 -2.625 2.390625 -2.46875 C 2.554688 -2.3125 2.640625 -2.066406 2.640625 -1.734375 L 2.640625 0 Z M 2.234375 0 "/></g></g></g><g fill="#00fca8" fill-opacity="1"><g transform="translate(113.653615, 24.173607)"><g><path d="M 2.59375 -2.65625 L 2.59375 -2.390625 L 2.109375 -2.34375 C 2.148438 -2.28125 2.1875 -2.203125 2.21875 -2.109375 C 2.257812 -2.023438 2.28125 -1.925781 2.28125 -1.8125 C 2.28125 -1.550781 2.191406 -1.34375 2.015625 -1.1875 C 1.835938 -1.03125 1.59375 -0.953125 1.28125 -0.953125 C 1.195312 -0.953125 1.125 -0.957031 1.0625 -0.96875 C 0.882812 -0.882812 0.796875 -0.773438 0.796875 -0.640625 C 0.796875 -0.566406 0.828125 -0.507812 0.890625 -0.46875 C 0.953125 -0.4375 1.054688 -0.421875 1.203125 -0.421875 L 1.671875 -0.421875 C 1.953125 -0.421875 2.171875 -0.359375 2.328125 -0.234375 C 2.484375 -0.117188 2.5625 0.0507812 2.5625 0.28125 C 2.5625 0.582031 2.441406 0.804688 2.203125 0.953125 C 1.972656 1.109375 1.628906 1.1875 1.171875 1.1875 C 0.828125 1.1875 0.5625 1.117188 0.375 0.984375 C 0.1875 0.859375 0.09375 0.679688 0.09375 0.453125 C 0.09375 0.285156 0.144531 0.144531 0.25 0.03125 C 0.351562 -0.0820312 0.5 -0.160156 0.6875 -0.203125 C 0.613281 -0.234375 0.550781 -0.28125 0.5 -0.34375 C 0.457031 -0.414062 0.4375 -0.492188 0.4375 -0.578125 C 0.4375 -0.671875 0.460938 -0.753906 0.515625 -0.828125 C 0.566406 -0.898438 0.648438 -0.972656 0.765625 -1.046875 C 0.628906 -1.097656 0.515625 -1.191406 0.421875 -1.328125 C 0.335938 -1.460938 0.296875 -1.617188 0.296875 -1.796875 C 0.296875 -2.085938 0.382812 -2.3125 0.5625 -2.46875 C 0.738281 -2.625 0.984375 -2.703125 1.296875 -2.703125 C 1.441406 -2.703125 1.566406 -2.6875 1.671875 -2.65625 Z M 0.484375 0.4375 C 0.484375 0.582031 0.539062 0.691406 0.65625 0.765625 C 0.78125 0.835938 0.957031 0.875 1.1875 0.875 C 1.519531 0.875 1.765625 0.820312 1.921875 0.71875 C 2.085938 0.625 2.171875 0.492188 2.171875 0.328125 C 2.171875 0.179688 2.125 0.078125 2.03125 0.015625 C 1.945312 -0.0351562 1.785156 -0.0625 1.546875 -0.0625 L 1.0625 -0.0625 C 0.875 -0.0625 0.726562 -0.0195312 0.625 0.0625 C 0.53125 0.15625 0.484375 0.28125 0.484375 0.4375 Z M 0.703125 -1.796875 C 0.703125 -1.617188 0.753906 -1.476562 0.859375 -1.375 C 0.960938 -1.28125 1.109375 -1.234375 1.296875 -1.234375 C 1.679688 -1.234375 1.875 -1.425781 1.875 -1.8125 C 1.875 -2.207031 1.675781 -2.40625 1.28125 -2.40625 C 1.09375 -2.40625 0.945312 -2.351562 0.84375 -2.25 C 0.75 -2.15625 0.703125 -2.003906 0.703125 -1.796875 Z M 0.703125 -1.796875 "/></g></g></g><g fill="#00fca8" fill-opacity="1"><g transform="translate(83.845384, 30.87489)"><g/></g></g></svg>